<?xml version="1.0" encoding="utf-8"?>
<!-- Generator: Adobe Illustrator 23.0.3, SVG Export Plug-In . SVG Version: 6.00 Build 0)  -->
<svg version="1.1" id="Vrstva_1" xmlns="http://www.w3.org/2000/svg" xmlns:xlink="http://www.w3.org/1999/xlink" x="0px" y="0px"
	 width="100px" height="100px" viewBox="0 0 100 100" enable-background="new 0 0 100 100" xml:space="preserve">
<path d="M304.5,80V20c0-4.188-3.125-7.804-7.269-8.41l-43.704-6.404l-0.226-1.006c-5.245-23.379-14.385-45.442-27.166-65.576
	l-0.55-0.867l25.179-34.19c2.51-3.407,2.159-8.054-0.834-11.05l-42.429-42.429c-2.992-2.994-7.642-3.345-11.055-0.833
	l-34.186,25.179l-0.866-0.55c-20.134-12.781-42.196-21.921-65.575-27.166l-1.007-0.226l-6.403-43.704
	c-0.606-4.144-4.222-7.268-8.41-7.268H20c-4.188,0-7.804,3.125-8.41,7.268l-6.404,43.705l-1.006,0.226
	c-23.371,5.239-45.434,14.378-65.575,27.166l-0.867,0.551l-34.186-25.179c-3.408-2.509-8.058-2.158-11.054,0.833l-42.429,42.429
	c-2.992,2.996-3.342,7.645-0.833,11.054l25.179,34.186l-0.551,0.867c-12.781,20.132-21.921,42.195-27.166,65.575l-0.226,1.006
	l-43.704,6.404c-4.144,0.606-7.268,4.222-7.268,8.41v60c0,4.188,3.125,7.804,7.268,8.41l43.704,6.403l0.226,1.007
	c5.244,23.378,14.382,45.438,27.162,65.567l0.55,0.866l-25.175,34.198c-2.51,3.41-2.16,8.057,0.833,11.05l42.43,42.43
	c2.994,2.993,7.641,3.344,11.05,0.833l34.19-25.179l0.867,0.55c20.135,12.786,42.198,21.926,65.575,27.166l1.006,0.226l6.404,43.704
	c0.606,4.144,4.222,7.269,8.41,7.269h60c4.188,0,7.804-3.125,8.41-7.269l6.403-43.704l1.007-0.226
	c23.37-5.239,45.433-14.379,65.575-27.166l0.866-0.55l34.19,25.179c3.407,2.51,8.055,2.157,11.05-0.834l42.43-42.429
	c2.992-2.993,3.343-7.64,0.833-11.05l-25.179-34.198l0.55-0.867c12.785-20.126,21.925-42.186,27.166-65.566l0.226-1.007
	l43.704-6.403C301.375,87.804,304.5,84.188,304.5,80z M287.5,72.655l-42.345,6.204c-3.585,0.524-6.445,3.269-7.119,6.83
	c-4.93,26.04-14.967,50.272-29.833,72.024c-2.035,2.977-1.967,6.929,0.17,9.835l24.369,33.096l-32.098,32.098l-33.085-24.366
	c-2.906-2.14-6.859-2.211-9.834-0.177c-21.761,14.868-45.997,24.906-72.036,29.837c-3.562,0.674-6.306,3.534-6.83,7.118
	L72.655,287.5H27.344l-6.204-42.345c-0.527-3.585-3.272-6.446-6.83-7.119c-26.038-4.93-50.274-14.968-72.036-29.837
	c-2.977-2.033-6.929-1.963-9.835,0.177l-33.085,24.366l-32.097-32.097l24.366-33.098c2.139-2.904,2.208-6.856,0.173-9.834
	c-14.864-21.749-24.902-45.981-29.837-72.024c-0.674-3.562-3.535-6.306-7.119-6.83l-42.341-6.204V27.344l42.341-6.204
	c3.587-0.524,6.448-3.269,7.118-6.828c4.934-26.04,14.972-50.276,29.837-72.038c2.035-2.979,1.965-6.931-0.172-9.835l-24.366-33.085
	l32.097-32.097l33.085,24.366c2.905,2.144,6.857,2.213,9.834,0.177c21.761-14.868,45.997-24.907,72.037-29.837
	c3.561-0.674,6.306-3.535,6.83-7.119l6.204-42.345h45.311l6.204,42.345c0.524,3.583,3.269,6.444,6.83,7.119
	c26.037,4.929,50.273,14.968,72.036,29.836c2.979,2.034,6.931,1.961,9.834-0.176l33.09-24.366l32.093,32.097L208.376-67.56
	c-2.139,2.905-2.209,6.857-0.173,9.834c14.869,21.769,24.908,46.005,29.837,72.037c0.674,3.561,3.534,6.306,7.118,6.83l42.342,6.204
	V72.655z"/>
<path d="M304.5,80V20c0-4.188-3.125-7.804-7.269-8.41l-43.704-6.404l-0.226-1.006c-5.245-23.379-14.385-45.442-27.166-65.576
	l-0.55-0.867l25.179-34.19c2.51-3.407,2.159-8.054-0.834-11.05l-42.429-42.429c-2.992-2.994-7.642-3.345-11.055-0.833
	l-34.186,25.179l-0.866-0.55c-20.134-12.781-42.196-21.921-65.575-27.166l-1.007-0.226l-6.403-43.704
	c-0.606-4.144-4.222-7.268-8.41-7.268H20c-4.188,0-7.804,3.125-8.41,7.268l-6.404,43.705l-1.006,0.226
	c-23.371,5.239-45.434,14.378-65.575,27.166l-0.867,0.551l-34.186-25.179c-3.408-2.509-8.058-2.158-11.054,0.833l-42.429,42.429
	c-2.992,2.996-3.342,7.645-0.833,11.054l25.179,34.186l-0.551,0.867c-12.781,20.132-21.921,42.195-27.166,65.575l-0.226,1.006
	l-43.704,6.404c-4.144,0.606-7.268,4.222-7.268,8.41v60c0,4.188,3.125,7.804,7.268,8.41l43.704,6.403l0.226,1.007
	c5.244,23.378,14.382,45.438,27.162,65.567l0.55,0.866l-25.175,34.198c-2.51,3.41-2.16,8.057,0.833,11.05l42.43,42.43
	c2.994,2.993,7.641,3.344,11.05,0.833l34.19-25.179l0.867,0.55c20.135,12.786,42.198,21.926,65.575,27.166l1.006,0.226l6.404,43.704
	c0.606,4.144,4.222,7.269,8.41,7.269h60c4.188,0,7.804-3.125,8.41-7.269l6.403-43.704l1.007-0.226
	c23.37-5.239,45.433-14.379,65.575-27.166l0.866-0.55l34.19,25.179c3.407,2.51,8.055,2.157,11.05-0.834l42.43-42.429
	c2.992-2.993,3.343-7.64,0.833-11.05l-25.179-34.198l0.55-0.867c12.785-20.126,21.925-42.186,27.166-65.566l0.226-1.007
	l43.704-6.403C301.375,87.804,304.5,84.188,304.5,80z M287.5,72.655l-42.345,6.204c-3.585,0.524-6.445,3.269-7.119,6.83
	c-4.93,26.04-14.967,50.272-29.833,72.024c-2.035,2.977-1.967,6.929,0.17,9.835l24.369,33.096l-32.098,32.098l-33.085-24.366
	c-2.906-2.14-6.859-2.211-9.834-0.177c-21.761,14.868-45.997,24.906-72.036,29.837c-3.562,0.674-6.306,3.534-6.83,7.118
	L72.655,287.5H27.344l-6.204-42.345c-0.527-3.585-3.272-6.446-6.83-7.119c-26.038-4.93-50.274-14.968-72.036-29.837
	c-2.977-2.033-6.929-1.963-9.835,0.177l-33.085,24.366l-32.097-32.097l24.366-33.098c2.139-2.904,2.208-6.856,0.173-9.834
	c-14.864-21.749-24.902-45.981-29.837-72.024c-0.674-3.562-3.535-6.306-7.119-6.83l-42.341-6.204V27.344l42.341-6.204
	c3.587-0.524,6.448-3.269,7.118-6.828c4.934-26.04,14.972-50.276,29.837-72.038c2.035-2.979,1.965-6.931-0.172-9.835l-24.366-33.085
	l32.097-32.097l33.085,24.366c2.905,2.144,6.857,2.213,9.834,0.177c21.761-14.868,45.997-24.907,72.037-29.837
	c3.561-0.674,6.306-3.535,6.83-7.119l6.204-42.345h45.311l6.204,42.345c0.524,3.583,3.269,6.444,6.83,7.119
	c26.037,4.929,50.273,14.968,72.036,29.836c2.979,2.034,6.931,1.961,9.834-0.176l33.09-24.366l32.093,32.097L208.376-67.56
	c-2.139,2.905-2.209,6.857-0.173,9.834c14.869,21.769,24.908,46.005,29.837,72.037c0.674,3.561,3.534,6.306,7.118,6.83l42.342,6.204
	V72.655z"/>
<path fill="#75B843" d="M2.936,92.661v-3.62h31.966c0.597,1.598,2.139,2.74,3.943,2.74h22.31c1.804,0,3.346-1.141,3.943-2.74h11.377
	v-2.936H62.427v1.468c0,0.701-0.571,1.272-1.272,1.272h-22.31c-0.701,0-1.272-0.571-1.272-1.272v-1.468H8.415v-13.07H5.479v13.07H0
	v6.556C0,96.708,3.292,100,7.339,100h17.976v-2.936H7.339C4.91,97.064,2.936,95.089,2.936,92.661z"/>
<path fill="#75B843" d="M94.521,86.105V30.822c0-4.047-3.292-7.339-7.339-7.339h-12.3v2.936h12.3c2.428,0,4.403,1.975,4.403,4.403
	v55.283H79.41v2.936h17.654v3.62c0,2.428-1.974,4.403-4.403,4.403H28.25V100h64.411c4.047,0,7.339-3.292,7.339-7.339v-6.556H94.521z
	"/>
<path fill="#75B843" d="M8.415,30.822c0-2.428,1.974-4.403,4.403-4.403h59.128v-2.936h-9.128v-5.492l2.695-2.328
	c0.874,0.611,1.934,0.971,3.078,0.971c2.967,0,5.381-2.415,5.381-5.382c0-2.968-2.414-5.382-5.381-5.382
	c-2.968,0-5.382,2.414-5.382,5.382c0,0.759,0.159,1.482,0.444,2.138l-3.771,3.257v6.836h-8.414V12.547
	c2.802-0.665,4.892-3.185,4.892-6.187C56.36,2.853,53.506,0,50,0s-6.36,2.853-6.36,6.36c0,3.002,2.09,5.523,4.892,6.187v10.936
	h-8.219v-6.836l-3.915-3.381c0.253-0.623,0.392-1.302,0.392-2.013c0-2.968-2.414-5.382-5.382-5.382
	c-2.967,0-5.381,2.414-5.381,5.382c0,2.967,2.414,5.382,5.381,5.382c1.192,0,2.293-0.39,3.185-1.048l2.784,2.404v5.492h-24.56
	c-4.047,0-7.339,3.292-7.339,7.339V70.1h2.936V30.822z M68.591,8.807c1.349,0,2.446,1.097,2.446,2.446s-1.097,2.446-2.446,2.446
	s-2.447-1.097-2.447-2.446S67.242,8.807,68.591,8.807z M46.575,6.36c0-1.888,1.537-3.424,3.425-3.424s3.425,1.536,3.425,3.424
	c0,1.888-1.537,3.425-3.425,3.425S46.575,8.248,46.575,6.36z M31.409,13.699c-1.349,0-2.446-1.097-2.446-2.446
	s1.097-2.446,2.446-2.446s2.447,1.097,2.447,2.446S32.758,13.699,31.409,13.699z"/>
<path fill="#75B843" d="M88.65,48.434V31.311H11.35v49.902H88.65V51.37h-2.936v26.907H14.286V34.247h71.428v14.188H88.65z"/>
<path fill="#75B843" d="M80.528,91.585h9.785v2.936h-9.785V91.585z"/>
<path fill="#75B843" d="M74.657,91.585h2.936v2.936h-2.936V91.585z"/>
<g>
	<path fill="#75B843" d="M60.986,45.703c0.122-0.122,0.285-0.183,0.488-0.183s0.387,0.061,0.549,0.183l1.709,1.77
		c0.163,0.122,0.244,0.285,0.244,0.488s-0.081,0.387-0.244,0.549L45.422,66.821c-0.122,0.122-0.285,0.183-0.488,0.183
		s-0.387-0.061-0.549-0.183l-8.118-8.179c-0.163-0.122-0.244-0.285-0.244-0.488s0.081-0.386,0.244-0.549l1.709-1.709
		c0.163-0.163,0.346-0.244,0.549-0.244s0.366,0.081,0.488,0.244l5.92,5.92L60.986,45.703z"/>
</g>
<g>
</g>
<g>
</g>
<g>
</g>
<g>
</g>
<g>
</g>
<g>
</g>
<g>
</g>
<g>
</g>
<g>
</g>
<g>
</g>
<g>
</g>
</svg>
